<svg width="159" height="155" viewBox="0 0 159 155" fill="none" xmlns="http://www.w3.org/2000/svg">
<path d="M38.7148 85.998C42.8108 87.15 45.9148 89.134 48.0268 91.95C50.1388 94.702 51.1948 98.19 51.1948 102.414C51.1948 108.302 49.1148 112.942 44.9548 116.334C40.8588 119.726 35.2908 121.422 28.2508 121.422C24.0908 121.422 20.0908 120.75 16.2508 119.406C12.4748 118.062 9.27475 116.206 6.65075 113.838C5.37075 112.814 4.73075 111.534 4.73075 109.998C4.73075 108.846 5.05075 107.886 5.69075 107.118C6.33075 106.286 7.09875 105.87 7.99475 105.87C8.95475 105.87 10.0428 106.286 11.2588 107.118C14.0108 109.166 16.6988 110.734 19.3228 111.822C22.0108 112.846 24.8908 113.358 27.9628 113.358C37.0508 113.358 41.5948 109.486 41.5948 101.742C41.5948 97.966 40.3788 95.15 37.9468 93.294C35.5788 91.374 31.9628 90.414 27.0988 90.414H21.8188C20.6028 90.414 19.6428 90.03 18.9388 89.262C18.2348 88.43 17.8828 87.47 17.8828 86.382C17.8828 85.358 18.2348 84.462 18.9388 83.694C19.6428 82.862 20.6028 82.446 21.8188 82.446H25.5627C30.2348 82.446 33.7868 81.486 36.2188 79.566C38.7148 77.582 39.9628 74.702 39.9628 70.926C39.9628 67.598 38.9388 65.006 36.8908 63.15C34.9068 61.294 32.0908 60.366 28.4427 60.366C23.0668 60.366 17.6908 62.446 12.3148 66.606C11.0988 67.438 10.0108 67.854 9.05075 67.854C8.15475 67.854 7.38675 67.47 6.74675 66.702C6.10675 65.87 5.78675 64.878 5.78675 63.726C5.78675 62.19 6.42675 60.91 7.70675 59.886C10.3308 57.518 13.4988 55.662 17.2108 54.318C20.9868 52.974 24.8588 52.302 28.8268 52.302C35.1628 52.302 40.2188 53.902 43.9948 57.102C47.7708 60.302 49.6268 64.59 49.5627 69.966C49.5627 73.678 48.6028 76.974 46.6828 79.854C44.7628 82.67 42.1068 84.718 38.7148 85.998Z" fill="#F9BDBD" fill-opacity="0.25"/>
<g clip-path="url(#clip0)">
<path d="M64.1613 46.7016C64.1613 58.4601 73.6931 67.992 85.4516 67.992V25.4113C73.6931 25.4113 64.1613 34.9432 64.1613 46.7016Z" fill="#A8DCEC"/>
<path d="M151.258 66.0565H108.677V46.7017H151.258V66.0565Z" fill="#F9BDBD"/>
<path d="M143.516 33.1533H112.548V25.4113H143.516V33.1533Z" fill="#F7DEA6"/>
<path d="M153.194 38.9597H151.258V15.7339H58.3548V0.25H48.6774C43.3416 0.25 39 4.59161 39 9.92742V83.4758C39 88.8116 43.3416 93.1532 48.6774 93.1532H100.935V114.444C100.935 117.644 103.541 120.25 106.742 120.25H153.194C156.394 120.25 159 117.644 159 114.444V44.7661C159 41.5652 156.394 38.9597 153.194 38.9597ZM42.871 9.92742C42.871 6.7265 45.4765 4.12097 48.6774 4.12097H54.4839V73.7984H48.6774C46.5 73.7984 44.4889 74.5223 42.871 75.7376V9.92742ZM48.6774 89.2823C45.4765 89.2823 42.871 86.6767 42.871 83.4758C42.871 80.2749 45.4765 77.6694 48.6774 77.6694H58.3548V19.6048H147.387V38.9597H107.342C104.092 29.7718 95.3114 23.4758 85.4516 23.4758C72.6442 23.4758 62.2258 33.8942 62.2258 46.7016C62.2258 59.5091 72.6442 69.9274 85.4516 69.9274C91.2193 69.9274 96.7158 67.7613 100.935 63.9877V89.2823H48.6774ZM100.935 44.7661H87.3871V27.4555C94.682 28.1926 101.004 33.037 103.58 39.9085C101.99 40.9452 100.935 42.7324 100.935 44.7661ZM83.5161 65.9582C73.7499 64.9838 66.0968 56.7193 66.0968 46.7016C66.0968 36.684 73.7499 28.4194 83.5161 27.4451V65.9582ZM87.3871 48.6371H100.935V58.272C97.676 62.6249 92.7522 65.3968 87.3871 65.9383V48.6371ZM155.129 114.444C155.129 115.51 154.26 116.379 153.194 116.379H106.742C105.676 116.379 104.806 115.51 104.806 114.444V44.7661C104.806 43.7001 105.676 42.8306 106.742 42.8306H153.194C154.26 42.8306 155.129 43.7001 155.129 44.7661V114.444Z" fill="black"/>
<path d="M139.645 112.508H151.258V100.895H139.645V112.508ZM143.516 104.766H147.387V108.637H143.516V104.766Z" fill="black"/>
<path d="M124.161 112.508H135.774V100.895H124.161V112.508ZM128.032 104.766H131.903V108.637H128.032V104.766Z" fill="black"/>
<path d="M108.677 112.508H120.29V100.895H108.677V112.508ZM112.548 104.766H116.419V108.637H112.548V104.766Z" fill="black"/>
<path d="M139.645 97.0242H151.258V85.4113H139.645V97.0242ZM143.516 89.2822H147.387V93.1532H143.516V89.2822Z" fill="black"/>
<path d="M124.161 97.0242H135.774V85.4113H124.161V97.0242ZM128.032 89.2822H131.903V93.1532H128.032V89.2822Z" fill="black"/>
<path d="M108.677 97.0242H120.29V85.4113H108.677V97.0242ZM112.548 89.2822H116.419V93.1532H112.548V89.2822Z" fill="black"/>
<path d="M139.645 81.5403H151.258V69.9274H139.645V81.5403ZM143.516 73.7984H147.387V77.6694H143.516V73.7984Z" fill="black"/>
<path d="M124.161 81.5403H135.774V69.9274H124.161V81.5403ZM128.032 73.7984H131.903V77.6694H128.032V73.7984Z" fill="black"/>
<path d="M108.677 81.5403H120.29V69.9274H108.677V81.5403ZM112.548 73.7984H116.419V77.6694H112.548V73.7984Z" fill="black"/>
<path d="M112.548 23.4758H143.516V27.3468H112.548V23.4758Z" fill="black"/>
<path d="M112.548 31.2177H143.516V35.0887H112.548V31.2177Z" fill="black"/>
<path d="M112.548 58.3145H147.387V62.1855H112.548V58.3145Z" fill="black"/>
</g>
<defs>
<clipPath id="clip0">
<rect width="120" height="120" fill="white" transform="translate(39 0.25)"/>
</clipPath>
</defs>
</svg>
