<svg width="162" height="151" viewBox="0 0 162 151" fill="none" xmlns="http://www.w3.org/2000/svg">
<path d="M47.8348 108.09C49.3708 108.09 50.5228 108.442 51.2908 109.146C52.0588 109.85 52.4428 110.842 52.4428 112.122C52.4428 114.874 50.9068 116.25 47.8348 116.25H15.7708C12.6348 116.25 11.0668 114.874 11.0668 112.122C11.0668 110.842 11.4508 109.85 12.2188 109.146C13.0508 108.442 14.2348 108.09 15.7708 108.09H26.8108V60.186L16.9228 66.426C16.2828 66.81 15.6428 67.002 15.0028 67.002C13.9148 67.002 12.9548 66.522 12.1228 65.562C11.3548 64.602 10.9708 63.514 10.9708 62.298C10.9708 60.826 11.6108 59.674 12.8907 58.842L27.6748 49.434C29.1468 48.538 30.5548 48.09 31.8988 48.09C33.3068 48.09 34.4588 48.538 35.3548 49.434C36.2508 50.33 36.6988 51.546 36.6988 53.082V108.09H47.8348Z" fill="#F9BDBD" fill-opacity="0.25"/>
<path d="M96.1938 22.0403H49.7421V53.0079H96.1938V22.0403Z" fill="#F9BDBD"/>
<path d="M156.193 12.3627H47.8066C44.6054 12.3627 42 14.9681 42 18.1693V89.782C42 92.9832 44.6054 95.5886 47.8066 95.5886H80.7096V105.266H71.032V109.137H132.968V105.266H123.29V95.5886H156.193C159.395 95.5886 162 92.9832 162 89.782V18.1693C162 14.9681 159.395 12.3627 156.193 12.3627ZM47.8066 16.2338H156.194C157.262 16.2338 158.129 17.1028 158.129 18.1693V78.1693H45.871V18.1693C45.871 17.1028 46.738 16.2338 47.8066 16.2338ZM119.419 105.266H84.5807V95.5886H119.419V105.266ZM156.193 91.7176H47.8066C46.738 91.7176 45.871 90.8486 45.871 89.782V82.0403H158.129V89.7824C158.129 90.8486 157.262 91.7176 156.193 91.7176Z" fill="#333333"/>
<path d="M109.969 58.8144H115.549V59.1705C113.301 59.9716 111.678 62.101 111.678 64.621C111.678 67.8222 114.283 70.4276 117.484 70.4276C120.004 70.4276 122.133 68.8038 122.935 66.5565H139.133C139.934 68.8038 142.063 70.4276 144.583 70.4276C147.784 70.4276 150.39 67.8222 150.39 64.621C150.39 62.101 148.766 59.972 146.519 59.1705V58.8144H152.141L154.464 35.5886H113.613V39.4596H150.184L148.635 54.9434H113.386L109.515 23.9758H102V27.8469H106.097L109.969 58.8144ZM139.13 62.6855H122.932C122.348 61.0463 121.057 59.755 119.417 59.1705V58.8144H142.643V59.1705C141.006 59.755 139.715 61.0463 139.13 62.6855ZM117.484 66.5565C116.415 66.5565 115.548 65.6875 115.548 64.621C115.548 63.5545 116.415 62.6855 117.484 62.6855C118.552 62.6855 119.419 63.5545 119.419 64.621C119.419 65.6875 118.552 66.5565 117.484 66.5565ZM144.581 66.5565C143.512 66.5565 142.645 65.6875 142.645 64.621C142.645 63.5545 143.512 62.6855 144.581 62.6855C145.649 62.6855 146.516 63.5545 146.516 64.621C146.516 65.6875 145.649 66.5565 144.581 66.5565Z" fill="#333333"/>
<path d="M146.516 45.2662H115.548V49.1373H146.516V45.2662Z" fill="#333333"/>
<path d="M96.1938 58.8145H49.7421V62.6855H96.1938V58.8145Z" fill="#333333"/>
<path d="M96.1938 68.4921H49.7421V72.3631H96.1938V68.4921Z" fill="#333333"/>
</svg>
