<svg width="159" height="155" viewBox="0 0 159 155" fill="none" xmlns="http://www.w3.org/2000/svg">
<path d="M51.0028 98.362C54.1388 98.362 55.7068 99.674 55.7068 102.298C55.7068 104.922 54.1388 106.234 51.0028 106.234H44.8588V115.738C44.8588 117.338 44.4108 118.586 43.5148 119.482C42.6188 120.314 41.4348 120.73 39.9628 120.73C38.5548 120.73 37.4028 120.314 36.5068 119.482C35.6108 118.586 35.1628 117.338 35.1628 115.738V106.234H8.18675C6.77875 106.234 5.69075 105.85 4.92275 105.082C4.15475 104.314 3.77075 103.322 3.77075 102.106C3.77075 100.826 4.18675 99.578 5.01875 98.362L35.6428 54.298C36.6668 52.826 38.1068 52.09 39.9628 52.09C41.3068 52.09 42.4588 52.538 43.4188 53.434C44.3788 54.266 44.8588 55.482 44.8588 57.082V98.362H51.0028ZM14.4268 98.362H35.1628V68.41L14.4268 98.362Z" fill="#F9BDBD" fill-opacity="0.25"/>
<g clip-path="url(#clip0)">
<path d="M144.428 27.1887L143.516 26.9874V23.9758C143.516 12.2177 133.984 2.68549 122.226 2.68549C112.641 2.68549 104.549 9.02419 101.88 17.7339L99.7277 17.2558C97.3684 16.7313 95.129 18.5274 95.129 20.9448C95.129 22.7158 96.36 24.2487 98.0884 24.6339L131.895 32.1474L135.987 33.0571L142.788 34.5687C145.148 35.0913 147.387 33.2952 147.387 30.8777C147.387 29.1068 146.156 27.5739 144.428 27.1887Z" fill="#A8DCEC"/>
<path d="M56.4194 56.879L60.1897 49.1371L56.4194 41.3952L65.0787 40.7565L69.9678 33.6532V2.68549H50.6129V118.815H69.9678V64.621L65.0787 57.5177L56.4194 56.879Z" fill="#F7DEA6"/>
<path d="M143.315 36.5603C143.417 36.5661 143.52 36.5932 143.621 36.5932C144.904 36.5932 146.158 36.1577 147.184 35.3352C148.544 34.2474 149.323 32.6216 149.323 30.8777C149.323 28.3926 147.755 26.2694 145.452 25.4874V23.9758C145.452 11.1687 135.033 0.75 122.226 0.75C112.651 0.75 104.079 6.70355 100.62 15.4713L100.146 15.3668C98.4464 14.9874 96.6909 15.3958 95.3322 16.4874C93.9716 17.5752 93.1935 19.201 93.1935 20.9448C93.1935 23.43 94.7613 25.5532 97.0645 26.3352V33.6532C97.0645 43.5339 103.275 51.9706 111.991 55.319C110.303 56.1145 108.697 57.0919 107.23 58.2668L104.127 60.75H90.6096L89.6264 56.1552C90.6096 55.4526 91.258 54.3068 91.258 53.0081H99.7567L98.8006 50.161C97.5967 46.5435 94.4709 43.9868 90.7838 43.4468C90.1277 42.2313 88.86 41.3952 87.3871 41.3952H79.6451C78.2187 41.3952 76.9838 42.179 76.3122 43.3306H71.9032C69.7684 43.3306 68.0322 45.0668 68.0322 47.2016V51.0726C68.0322 53.2074 69.7684 54.9435 71.9032 54.9435H76.3122C76.7148 55.6326 77.3148 56.1881 78.0445 56.5229L79.74 63.3068C78.4916 64.6829 77.7096 66.4906 77.7096 68.4919C77.7096 71.8461 79.8658 74.6797 82.8542 75.7539L84.8922 83.91C85.198 85.139 85.9316 86.159 86.9013 86.8577C85.9606 88.65 85.4516 90.63 85.4516 92.6855V109.677L83.2761 110.403C81.1045 111.127 79.6451 113.151 79.6451 115.441C79.6451 118.369 82.0258 120.75 84.9542 120.75H108.677V120.673C109.272 120.615 109.864 120.527 110.446 120.394L132.972 115.195L134.977 118.205C136.039 119.798 137.818 120.75 139.734 120.75C142.887 120.75 145.452 118.185 145.452 115.033V103.331C145.452 100.129 142.846 97.5242 139.645 97.5242H133.788C135.017 95.9023 135.774 93.9048 135.774 91.7177V60.75H135.745C135.639 57.8081 133.949 55.2919 131.499 53.9816C137.849 50.4687 142.37 44.0661 143.315 36.5603ZM122.226 4.62097C132.898 4.62097 141.581 13.3035 141.581 23.9758V24.5739L104.458 16.3248C107.479 9.33 114.455 4.62097 122.226 4.62097ZM100.935 33.6532V27.2487L116.419 30.69V37.5242H120.29C121.359 37.5242 122.226 38.3913 122.226 39.4597C122.226 40.5281 121.359 41.3952 120.29 41.3952H116.419V52.6171C107.595 50.819 100.935 42.9997 100.935 33.6532ZM110.886 60.3842C112.38 59.3661 114.002 58.5571 115.705 57.9745L110.886 60.3842ZM83.1851 61.1274L82.1226 56.879H85.8232L86.6516 60.75H85.4516C84.658 60.75 83.9071 60.9048 83.1851 61.1274ZM91.258 49.1371V47.5481C92.2219 47.8713 93.1006 48.3997 93.7916 49.1371H91.258ZM79.6451 45.2661H87.3871L87.3909 53.0081H79.6451V45.2661ZM71.9032 47.2016H75.7742V51.0726H71.9032V47.2016ZM85.4516 64.621H109.417L113.288 72.3629H85.4516C83.3167 72.3629 81.5806 70.6268 81.5806 68.4919C81.5806 66.3571 83.3167 64.621 85.4516 64.621ZM95.3187 99.3784C93.929 101.598 93.1935 104.161 93.1935 106.782C93.1935 107.585 93.2767 108.369 93.4084 109.137H89.3226V92.6855C89.3226 90.9106 89.8587 89.2055 90.8593 87.7539C92.6071 87.4364 94.0548 86.2519 94.7245 84.6532C97.3606 83.581 100.481 83.8887 102.869 85.4719V87.2932L95.3187 99.3784ZM94.8561 80.5616L93.929 76.2339H102.871V81.1074C100.343 80.0816 97.4942 79.9016 94.8561 80.5616ZM89.969 76.2339L91.2271 82.1003C91.2484 82.1952 91.258 82.2919 91.258 82.3868V82.6519C91.258 83.3816 90.6638 83.9758 89.9322 83.9758C89.3245 83.9758 88.7942 83.5616 88.6451 82.9713L86.9632 76.2339H89.969ZM106.742 76.2339H116.921L131.644 68.0526C131.735 68.0023 131.814 67.9384 131.903 67.8842V85.9113H106.742V76.2339ZM84.9542 116.879C84.1606 116.879 83.5161 116.235 83.5161 115.441C83.5161 114.822 83.9109 114.272 84.5013 114.075L87.7006 113.008H94.68C95.4096 114.462 96.3832 115.768 97.5561 116.879H84.9542ZM141.581 103.331V115.033C141.581 116.051 140.752 116.879 139.734 116.879C139.115 116.879 138.542 116.573 138.197 116.056L135.774 112.424V101.395H139.645C140.714 101.395 141.581 102.262 141.581 103.331ZM118.355 101.395H126.097H131.903V111.467L109.577 116.62C108.832 116.792 108.07 116.879 107.162 116.879C101.594 116.879 97.0645 112.35 97.0645 106.782C97.0645 104.887 97.5948 103.035 98.5993 101.43L105.879 89.7823H131.903V91.7177C131.903 94.919 129.298 97.5242 126.097 97.5242H118.355H110.613V101.395H118.355ZM129.766 64.6694L117.248 71.6235L113.21 63.5487L125.671 57.3164C126.25 57.03 126.894 56.879 127.535 56.879H127.746C130.039 56.879 131.903 58.7429 131.903 61.0345C131.903 62.5461 131.084 63.9358 129.766 64.6694ZM120.29 53.0081V45.2661C123.492 45.2661 126.097 42.661 126.097 39.4597C126.097 36.2584 123.492 33.6532 120.29 33.6532V31.5513L131.475 34.0365L132.315 30.2565L98.5084 22.7429C97.6703 22.559 97.0645 21.8023 97.0645 20.9448C97.0645 20.3835 97.3161 19.8571 97.7535 19.5068C98.1909 19.1565 98.758 19.0229 99.3077 19.1468L144.008 29.0797C144.846 29.2635 145.452 30.0203 145.452 30.8777C145.452 31.439 145.2 31.9655 144.763 32.3158C144.325 32.6661 143.756 32.7977 143.208 32.6758L136.407 31.1661L135.567 34.9461L139.514 35.8229C138.432 45.4752 130.227 53.0081 120.29 53.0081Z" fill="#333333"/>
<path d="M73.2638 56.4203L69.9677 61.2068L66.1451 55.6558L59.4096 55.1584L62.3438 49.1371L59.4096 43.1158L66.1451 42.6184L69.9677 37.0674L73.2638 41.8558L76.4496 39.659L71.9032 33.0513V0.75H48.6774V120.75H71.9032V65.2229L76.4516 58.6171L73.2638 56.4203ZM52.5483 116.879V4.62097H68.0322V33.0513L64.0103 38.8945L53.429 39.6745L58.0374 49.1371L53.429 58.5997L64.0103 59.3797L68.0322 65.2229V116.879H52.5483Z" fill="#333333"/>
<path d="M108.677 31.7177H104.806V35.5887H108.677V31.7177Z" fill="#333333"/>
<path d="M60.2903 8.49194H56.4193V23.9758H60.2903V8.49194Z" fill="#333333"/>
<path d="M60.2903 27.8468H56.4193V31.7178H60.2903V27.8468Z" fill="#333333"/>
<path d="M64.1613 66.5565H60.2903V82.0403H64.1613V66.5565Z" fill="#333333"/>
<path d="M60.2903 101.395H56.4193V113.008H60.2903V101.395Z" fill="#333333"/>
</g>
<defs>
<clipPath id="clip0">
<rect width="120" height="120" fill="white" transform="translate(39 0.75)"/>
</clipPath>
</defs>
</svg>
