<svg width="150" height="155" viewBox="0 0 150 155" fill="none" xmlns="http://www.w3.org/2000/svg">
<path d="M48.5068 112.34C50.0428 112.34 51.1948 112.692 51.9628 113.396C52.7948 114.1 53.2108 115.092 53.2108 116.372C53.2108 119.124 51.6428 120.5 48.5068 120.5H11.4508C10.0428 120.5 8.92275 120.116 8.09075 119.348C7.32275 118.516 6.93875 117.492 6.93875 116.276C6.93875 114.804 7.51475 113.46 8.66675 112.244L31.2268 87.572C34.2348 84.308 36.4108 81.332 37.7548 78.644C39.0988 75.956 39.7708 73.3 39.7708 70.676C39.7708 67.284 38.7788 64.692 36.7948 62.9C34.8748 61.044 32.1228 60.116 28.5388 60.116C23.0988 60.116 17.6908 62.196 12.3148 66.356C11.6108 66.804 11.0028 67.156 10.4908 67.412C10.0428 67.604 9.56275 67.7 9.05075 67.7C8.15475 67.7 7.38675 67.284 6.74675 66.452C6.10675 65.62 5.78675 64.628 5.78675 63.476C5.78675 61.876 6.42675 60.596 7.70675 59.636C10.3948 57.332 13.6268 55.508 17.4028 54.164C21.1788 52.756 24.9868 52.052 28.8268 52.052C35.1628 52.052 40.1868 53.684 43.8988 56.948C47.6748 60.148 49.5627 64.5 49.5627 70.004C49.5627 73.908 48.6988 77.62 46.9708 81.14C45.3068 84.66 42.4908 88.596 38.5228 92.948L20.3788 112.34H48.5068Z" fill="#F9BDBD" fill-opacity="0.25"/>
<g clip-path="url(#clip0)">
<path d="M80.3226 95.3387V2.43549H57.0968V95.3387V99.2097V118.565H122.903V95.3387H80.3226Z" fill="#F7DEA6"/>
<path d="M82.2581 93.4032V0.5H55.1613V120.5H124.839V93.4032H82.2581ZM78.3871 4.37097V94.5374L64.7013 108.223L67.4381 110.96L81.1239 97.2742H120.968V105.016H82.2581V116.629H61.7691L64.2716 114.126L61.5349 111.39L59.0323 113.892V99.2097H72.5807V95.3387H59.0323V91.4677H64.8387V87.5968H59.0323V83.7258H72.5807V79.8548H59.0323V75.9839H64.8387V72.1129H59.0323V68.2419H72.5807V64.371H59.0323V60.5H64.8387V56.629H59.0323V52.7581H72.5807V48.8871H59.0323V45.0161H64.8387V41.1452H59.0323V37.2742H72.5807V33.4032H59.0323V29.5323H64.8387V25.6613H59.0323V4.37097H78.3871ZM93.871 108.887H97.742V116.629H93.871V108.887ZM90 116.629H86.1291V108.887H90V116.629ZM101.613 108.887H105.484V116.629H101.613V108.887ZM109.355 108.887H113.226V116.629H109.355V108.887ZM117.097 116.629V108.887H120.968V116.629H117.097Z" fill="#333333"/>
<path d="M68.7097 19.8548C71.911 19.8548 74.5162 17.2497 74.5162 14.0484C74.5162 10.8471 71.911 8.24194 68.7097 8.24194C65.5084 8.24194 62.9033 10.8471 62.9033 14.0484C62.9033 17.2497 65.5084 19.8548 68.7097 19.8548ZM68.7097 12.1129C69.7781 12.1129 70.6452 12.98 70.6452 14.0484C70.6452 15.1168 69.7781 15.9839 68.7097 15.9839C67.6413 15.9839 66.7742 15.1168 66.7742 14.0484C66.7742 12.98 67.6413 12.1129 68.7097 12.1129Z" fill="#333333"/>
</g>
<defs>
<clipPath id="clip0">
<rect width="120" height="120" fill="white" transform="translate(30 0.5)"/>
</clipPath>
</defs>
</svg>
